<svg id="Layer_1" data-name="Layer 1" xmlns="http://www.w3.org/2000/svg" viewBox="0 0 460.51 495.52"><defs><style>.cls-1{fill:none;stroke-linecap:round;stroke-linejoin:round;stroke-width:5.08px;}.cls-1,.cls-2{stroke:#fff;}.cls-2,.cls-3,.cls-4{fill:#fff;}.cls-2{stroke-miterlimit:10;stroke-width:1.52px;}.cls-3{font-size:130.03px;font-family:WaltographUI-Bold, Waltograph UI;font-weight:700;}.cls-4{font-size:30.42px;font-family:MateSC-Regular, MateSC Regular;}.cls-5{letter-spacing:0.2em;}</style></defs><path class="cls-1" d="M275.45,28.61H436A42.39,42.39,0,0,0,478.37,71V191.34" transform="translate(-20.96 -1.24)"/><path class="cls-1" d="M234,471H73.45a42.39,42.39,0,0,0-42.39-42.39V308.31" transform="translate(-20.96 -1.24)"/><path class="cls-2" d="M64.73,107.93C72.63,99.45,81,92.21,91.18,87.35a17.16,17.16,0,0,0-.1-7.14,59.68,59.68,0,0,0-4.32-14.13q-3-6.8-6-13.54A76.69,76.69,0,0,1,74.2,27c-.58-6.93-.92-13.89-.89-20.86,0-.79,0-1.59.07-2.37.11-1.14.53-1.73,1.23-1.8a1.6,1.6,0,0,1,1.63,1.1c.47.95.93,1.9,1.37,2.87,2.08,4.57,4,9.2,6.27,13.7,2,3.94,4.2,7.75,6.36,11.59a67.74,67.74,0,0,1,7.5,18.29,54.08,54.08,0,0,1,.59,22.83,27,27,0,0,1-2.06,6.26c-.75,1.6-1.43,3.22-2.16,4.83a2.8,2.8,0,0,0-.33,2.27c.43.38.84.1,1.22,0,8.19-3.37,16.79-4.6,25.56-5a8.35,8.35,0,0,1,1.58-.05,2.79,2.79,0,0,0,2.52-1.14,23.9,23.9,0,0,0,5.49-8.64c.85-2.51,1.77-5,2.64-7.49a77.17,77.17,0,0,1,23.76-34.07,143.16,143.16,0,0,1,23.32-15.92c5.87-3.24,11.88-6.19,17.84-9.25a4.83,4.83,0,0,1,1.48-.55,1.78,1.78,0,0,1,1.18.32,1.13,1.13,0,0,1,.21,1.45,4.9,4.9,0,0,1-.72,1.09,274.53,274.53,0,0,0-17.65,24.44c-2.74,4.1-5.52,8.2-8.56,12.08A90.75,90.75,0,0,1,146,66.39c-4.92,2.75-9.89,5.42-14.55,8.62-.29.2-.68.31-.88.57-1.16,1.51-2.28,3.06-3.56,4.79.62.09,1,.16,1.45.2,3.15.28,6.32.53,9.47.85,2.8.28,5.59.71,8.39,1a20.5,20.5,0,0,0,10-1.88c6-2.63,12-5.18,18-7.6a48.72,48.72,0,0,1,24.65-3.16c5.85.75,11.69,1.69,17.54,2.49A172.65,172.65,0,0,0,239,74.12c2.46,0,4.93-.12,7.4-.19.61,0,1.23-.05,1.84,0a1.32,1.32,0,0,1,1.37,1,1.4,1.4,0,0,1-.78,1.53,7.22,7.22,0,0,1-1.16.63c-6,2.38-11.77,5.2-17.92,7.18a106.28,106.28,0,0,1-32.53,5A93.71,93.71,0,0,1,172.12,86a47.09,47.09,0,0,0-13.31-1.88c-1.39,0-2.78.14-4.15.22-.17.78.4.8.74.94a55.62,55.62,0,0,0,16.27,4.41c3.78.34,7.54.76,11.31,1.16A73.42,73.42,0,0,1,195.2,93a57.05,57.05,0,0,1,12.93,5.34c6.06,3.44,12,7,17.75,11,6.78,4.77,13.94,9,21,13.27.68.42,1.37.82,2,1.29a1.19,1.19,0,0,1,.43,1.42,1.28,1.28,0,0,1-1.28.76,4.7,4.7,0,0,1-1-.13,208.8,208.8,0,0,0-22.58-2.55c-1.93-.14-3.87-.26-5.8-.41a55.78,55.78,0,0,1-17.38-4.3c-1.14-.47-2.29-.94-3.4-1.49a62.5,62.5,0,0,0-15-5.1,52.76,52.76,0,0,1-12.43-4.42,24.36,24.36,0,0,1-8.64-6.84c-2-2.5-3.76-5.11-5.65-7.65-1.21-1.63-2.39-3.28-3.7-4.83a10.2,10.2,0,0,0-7.08-3.67c-2.37-.23-4.73-.53-7.08-.87a95,95,0,0,0-31.83.84A65.85,65.85,0,0,0,93.4,89a4,4,0,0,0-.81.69,4.45,4.45,0,0,0,.77.48c1.59.51,3.22.91,4.78,1.51A130.41,130.41,0,0,0,123,97.91c3.22.55,6.43,1.09,9.64,1.7a61.54,61.54,0,0,1,22.43,9c3.31,2.18,6.6,4.43,9.72,6.86q8.88,6.91,18.05,13.42a7.33,7.33,0,0,1,1.43,1.16,1.43,1.43,0,0,1,.25,1.18,1.73,1.73,0,0,1-.93.8,2.13,2.13,0,0,1-1,0c-.43,0-.86-.18-1.29-.26-6.23-1.22-12.43-2.62-18.69-3.61a141.81,141.81,0,0,1-34.85-10.53,110.63,110.63,0,0,1-16.38-8.6,48.61,48.61,0,0,1-9.24-7.86C100,99,97.93,96.89,96,94.6c-1.75-2.1-4-2.72-6.55-2.82a5,5,0,0,0-3,.78,77,77,0,0,0-11.63,8.69c-2.21,2-4.31,4.16-6.45,6.26a15.22,15.22,0,0,0-1.11,1.41c1.09-.07,1.85-.08,2.6-.16a27.2,27.2,0,0,1,16.74,3.76c2,1.15,3.88,2.44,5.85,3.61,3.79,2.26,7.59,4.49,11.39,6.73,2.74,1.61,5.5,3.17,8.2,4.85a72.17,72.17,0,0,1,16.77,14.45c5.9,6.9,11.74,13.85,17.59,20.79a14.89,14.89,0,0,1,1.24,1.71,1.18,1.18,0,0,1,0,1.47,1.36,1.36,0,0,1-1.46.33,9,9,0,0,1-1.47-.62,76,76,0,0,0-13.8-5.33c-10.37-2.92-19-8.61-26.75-16a237.15,237.15,0,0,1-19.67-21.41c-1.62-2-3-4.14-4.47-6.22-1.13-1.58-2.24-3.16-3.39-4.72A2.84,2.84,0,0,0,74.35,111a27.53,27.53,0,0,0-9.43.93,3.79,3.79,0,0,0-1.87,1.4c-1.58,1.9-3.2,3.76-4.72,5.71a196.53,196.53,0,0,0-27.78,49.42c-2.28,5.82-4.15,11.81-6.21,17.72a23.49,23.49,0,0,1-.82,2.22.87.87,0,0,1-1.12.44.86.86,0,0,1-.67-1c.14-.78.35-1.54.56-2.31a191.64,191.64,0,0,1,12.56-32.82,194.27,194.27,0,0,1,21.77-35.29c1.46-1.87,3-3.71,4.55-5.5a3.86,3.86,0,0,0,1.12-3.12,35.41,35.41,0,0,0-.86-5.47c-.94-3.12-2.13-6.16-3.24-9.23s-2.41-6.25-3.46-9.44A54.76,54.76,0,0,1,52.3,66.41,63.52,63.52,0,0,1,55.37,48c1.34-4.2,2.85-8.35,4.57-12.41,2.79-6.57,5.8-13,8.72-19.57a4.73,4.73,0,0,1,.74-1.39,2.48,2.48,0,0,1,1.33-.69c.59-.09,1,.42,1.11.94a9.9,9.9,0,0,1,.45,2.33c.3,7.85,1.33,15.63,2,23.44A101.58,101.58,0,0,1,72,72.13c-1.77,7.73-3.74,15.42-5.66,23.12a38.8,38.8,0,0,1-1.63,5.31C63.75,102.91,64,105.17,64.73,107.93Zm91.33-19.76a70.4,70.4,0,0,0,7.62,11.29,23.08,23.08,0,0,0,7.59,6,50,50,0,0,0,11.9,4.29,65.73,65.73,0,0,1,16,5.45c.63.32,1.28.58,1.93.86a55.51,55.51,0,0,0,18.61,4.65c6.94.44,13.88.92,20.77,1.85a10.47,10.47,0,0,0,1.62-.1l-3.1-1.94c-4.68-3-9.44-5.86-14-9-5.74-4-11.67-7.58-17.72-11a55.7,55.7,0,0,0-12.4-5.18,71.07,71.07,0,0,0-12.2-2.18c-3.77-.39-7.53-.79-11.29-1.16a50.78,50.78,0,0,1-13.08-3.09C157.55,88.62,156.79,88.41,156.06,88.17Zm-23.5-16.78c1.84-1.09,3.18-1.91,4.55-2.68,3.6-2,7.29-3.93,10.81-6.11a89.64,89.64,0,0,0,26.25-24.22c2.1-2.94,4.11-5.94,6.17-8.92L191.16,13.8c.5-.72,1-1.44,1.76-2.57a8.14,8.14,0,0,0-1.31.61A31.2,31.2,0,0,0,189,14.12c-3.47,3.63-6.89,7.32-10.35,11-3.64,3.83-7.31,7.63-11,11.44a11.75,11.75,0,0,1-1,.88,1,1,0,0,1-1.43,0,1,1,0,0,1-.08-1.43,18.9,18.9,0,0,1,1.57-1.77c3.29-3.45,6.6-6.86,9.86-10.32S183,17,186.19,13.57c.34-.37.62-.79,1.27-1.63-2.07,1.1-3.63,1.9-5.17,2.74a147,147,0,0,0-24.47,16.57,74.57,74.57,0,0,0-22.89,33.09c-.61,1.75-1.24,3.49-1.84,5.24C133,70,132.84,70.41,132.56,71.39ZM60.62,92.57c0-.78-.13-1.56-.13-2.34q0-4.23.07-8.46a3.24,3.24,0,0,1,.37-1.51A1.59,1.59,0,0,1,62,79.67c.51-.08.82.37.86.82a12.27,12.27,0,0,1,0,2.1,68.35,68.35,0,0,0,.27,11.62c0,.42.17.83.37,1.79.4-1.13.69-1.74.85-2.38,1.91-7.79,3.94-15.56,5.66-23.39a97.57,97.57,0,0,0,1.89-30c-.6-6.58-1.17-13.16-1.77-19.74,0-.2-.2-.38-.42-.78-.37.73-.66,1.26-.91,1.81-2.29,5.06-4.6,10.12-6.86,15.19a95.84,95.84,0,0,0-4.66,12.93,66.1,66.1,0,0,0-2.6,15.61A53,53,0,0,0,60.62,92.57ZM164.54,82c.41.1.81.22,1.22.31,2.41.5,4.86.87,7.24,1.52a90.24,90.24,0,0,0,24.57,3.15,107.29,107.29,0,0,0,18.93-1.69,114.92,114.92,0,0,0,22-6.74A15.66,15.66,0,0,0,242,76.59c-2.4-.07-4.32-.12-6.24-.19-9.62-.36-19.12-1.77-28.62-3.17-2.88-.42-5.75-.88-8.64-1.23-9.17-1.09-17.9.62-26.32,4.22a3.8,3.8,0,0,0-2,1.42c4-.82,7.8-.64,11.57-.8a2.81,2.81,0,0,1,1.3.15,1.78,1.78,0,0,1,.82.89c.16.43-.35,1.07-.84,1.17a9.52,9.52,0,0,1-1.31.12c-1.76.06-3.52.13-5.28.15A32.41,32.41,0,0,0,164.54,82ZM105.37,96.57l-.23.43a8.86,8.86,0,0,0,1,.71c1.41.72,2.83,1.43,4.27,2.11,4.8,2.27,9.91,3.64,15,5.13,3.38,1,6.72,2.13,10.07,3.22a6.77,6.77,0,0,1,1.65.79,1,1,0,0,1,.36.89c-.13.35-.49.81-.82.87a2.91,2.91,0,0,1-1.53-.2c-5.28-2-10.76-3.39-16.16-5a70,70,0,0,1-13.9-5.75c-.35-.19-.73-.34-1.4-.64a6.17,6.17,0,0,0,.52.93,39.46,39.46,0,0,0,6.93,6.1,89.72,89.72,0,0,0,10,5.89,164.08,164.08,0,0,0,18.48,7.88,108.48,108.48,0,0,0,17.8,4.95c6.34,1.13,12.66,2.31,19,3.46.34.07.69.16.88-.39-.38-.31-.77-.65-1.19-1-4.35-3.3-8.68-6.64-13.07-9.88-3-2.2-6-4.34-9.09-6.38A59.21,59.21,0,0,0,132.54,102c-3.28-.65-6.59-1.14-9.88-1.77-4.5-.86-9-1.77-13.47-2.7C107.91,97.26,106.64,96.89,105.37,96.57Zm37,65.32c-.75-.94-1.15-1.49-1.59-2q-3.48-4.15-7-8.29c-1.7-2-3.47-4-5.13-6a80.43,80.43,0,0,0-23.56-19.34c-4.76-2.68-9.44-5.5-14.16-8.25a10.55,10.55,0,0,0-1-.47,1.32,1.32,0,0,0,.42,1c1.67,1.7,3.32,3.42,5,5.07q5.51,5.32,11.07,10.59c1.73,1.64,3.55,3.17,5.33,4.75.46.41.92.82,1.35,1.27.68.71.82,1.36.45,1.87s-1.17.47-2.09-.25c-.34-.27-.66-.58-1-.88-.85-.76-1.69-1.54-2.56-2.29a202.61,202.61,0,0,1-16.61-15.89A48.11,48.11,0,0,0,83.22,116c-.25-.17-.48-.57-1-.2a9.62,9.62,0,0,0,.7,1.35c1,1.37,1.91,2.75,3,4a233.76,233.76,0,0,0,20.57,22.34c7.18,6.74,15.24,11.93,24.79,14.68,3.13.9,6.17,2.12,9.25,3.19C140.93,161.51,141.4,161.62,142.37,161.89Zm-66.1-153-.44,0a7.13,7.13,0,0,0-.14,1.21c.29,5.8.47,11.62.93,17.42A75.48,75.48,0,0,0,83.44,53c2.81,6.18,5.79,12.28,7.91,18.75.09.29.14.73.78.42,0-.55-.06-1.15-.08-1.75a45.59,45.59,0,0,0-4.43-18.11c-1.38-2.85-2.47-5.84-3.66-8.78a7.64,7.64,0,0,1-.46-1.78,1.1,1.1,0,0,1,.75-1.25,1,1,0,0,1,1.28.6c.14.32.23.67.36,1,1.22,2.93,2.4,5.88,3.68,8.78a49.07,49.07,0,0,1,4.36,14.37c.32,3,.42,6,.62,9,0,.37.13.73.24,1.41A10.77,10.77,0,0,0,96.1,71.5a52.56,52.56,0,0,0-1.18-23.56c-1.57-6-4.43-11.5-7.49-16.87-2.62-4.6-5.29-9.16-7.48-14C78.71,14.36,77.5,11.62,76.27,8.89ZM88.66,116.78l-.15-.17,0,.22Z" transform="translate(-20.96 -1.24)"/><path class="cls-2" d="M176.1,100.85c-.3-.73.15-1.44.65-1.39a6.09,6.09,0,0,1,1.52.34c2.31.84,4.61,1.73,6.92,2.58a64.38,64.38,0,0,0,9.63,2.72c2.93.61,5.82,1.36,8.72,2.07a3.61,3.61,0,0,1,1.44.58,1.5,1.5,0,0,1,.36,1.15c0,.25-.45.59-.74.63a4.27,4.27,0,0,1-1.55-.09c-4.37-1-8.75-2-13.09-3.06s-8.61-3.06-12.84-4.79A4.49,4.49,0,0,1,176.1,100.85Z" transform="translate(-20.96 -1.24)"/><path class="cls-2" d="M168.29,96.06c.07-.18.11-.59.34-.77a1.07,1.07,0,0,1,.94-.16,18.18,18.18,0,0,1,2.48,1.47,1,1,0,0,1,.32.89,1.09,1.09,0,0,1-.65.72A3.55,3.55,0,0,1,168.29,96.06Z" transform="translate(-20.96 -1.24)"/><path class="cls-2" d="M209.63,111.22a.87.87,0,0,1,.71-1.16,5.41,5.41,0,0,1,3.13,1.13.89.89,0,0,1-.22,1.35A3.32,3.32,0,0,1,209.63,111.22Z" transform="translate(-20.96 -1.24)"/><path class="cls-2" d="M156.06,49.09c-.26-.09-.71-.1-.86-.32a1.59,1.59,0,0,1-.22-1.16,2.88,2.88,0,0,1,.74-1.06q1.84-2,3.74-4a2.59,2.59,0,0,1,1-.75,1.22,1.22,0,0,1,.92.31,1,1,0,0,1,.21.7,1.27,1.27,0,0,1-.31.71c-1.48,1.72-3,3.44-4.49,5.13A3.24,3.24,0,0,1,156.06,49.09Z" transform="translate(-20.96 -1.24)"/><path class="cls-2" d="M148,55.4c0-.33-.06-.76.12-1a9.73,9.73,0,0,1,1.72-1.55c.17-.12.65,0,.91.21a.87.87,0,0,1,.31.67,2.63,2.63,0,0,1-2.34,2.07C148.51,55.82,148.31,55.59,148,55.4Z" transform="translate(-20.96 -1.24)"/><path class="cls-2" d="M64.49,51.4c.41.36,1,.62,1.08,1a5.14,5.14,0,0,1-.1,1.82C65,58,64.44,61.7,64,65.45c-.22,1.92-.21,3.86-.36,5.79a14,14,0,0,1-.43,2.58,1,1,0,0,1-.77.54,2,2,0,0,1-.93-.74c-.14-.17-.1-.5-.1-.76a117.07,117.07,0,0,1,1.76-19.15,6,6,0,0,1,.42-1.52C63.74,51.91,64.1,51.74,64.49,51.4Z" transform="translate(-20.96 -1.24)"/><path class="cls-2" d="M66,46c-.62.26-1.37-.14-1.32-.64a22.2,22.2,0,0,1,.57-3.34c.07-.26.71-.49,1.09-.5.21,0,.57.44.62.73a5.55,5.55,0,0,1-.5,3.33A1.54,1.54,0,0,1,66,46Z" transform="translate(-20.96 -1.24)"/><path class="cls-2" d="M186.81,78c.19-.35.3-.92.58-1a5.78,5.78,0,0,1,3.83,0,.79.79,0,0,1,.43.59,2.2,2.2,0,0,1-.34.92.58.58,0,0,1-.45.24c-1.12,0-2.24,0-3.36-.13C187.3,78.56,187.12,78.26,186.81,78Z" transform="translate(-20.96 -1.24)"/><path class="cls-2" d="M142.27,112.41c.07-.22.08-.55.24-.69a1.35,1.35,0,0,1,.92-.34,4,4,0,0,1,1.16.57c1.08.6,2.18,1.15,3.2,1.82a1.23,1.23,0,0,1,.43,1.09c-.1.31-.63.48-1,.7a.33.33,0,0,1-.26,0,11.59,11.59,0,0,1-4.46-2.66C142.4,112.8,142.37,112.6,142.27,112.41Z" transform="translate(-20.96 -1.24)"/><path class="cls-2" d="M116.31,145.6a1,1,0,0,1,.83-1.13.94.94,0,0,1,.51.07c1.18.9,2.38,1.78,3.49,2.76.21.18.18.84,0,1.18a.77.77,0,0,1-1.13.31c-1.25-.94-2.44-2-3.64-2.95C116.35,145.79,116.34,145.68,116.31,145.6Z" transform="translate(-20.96 -1.24)"/><path class="cls-2" d="M81.47,33.87a5.9,5.9,0,0,1,0-1.45c.06-.24.45-.48.75-.58a.73.73,0,0,1,.67.23,16.29,16.29,0,0,1,1,2.39.76.76,0,0,1-.6,1,1.54,1.54,0,0,1-1.13-.36A4.2,4.2,0,0,1,81.47,33.87Z" transform="translate(-20.96 -1.24)"/><path class="cls-2" d="M437.7,390.07c-7.9,8.49-16.26,15.72-26.45,20.58a17.16,17.16,0,0,0,.09,7.14,59.7,59.7,0,0,0,4.33,14.13q3,6.79,6,13.54a76.69,76.69,0,0,1,6.53,25.5c.58,6.93.92,13.89.89,20.86a23.36,23.36,0,0,1-.08,2.37c-.1,1.14-.52,1.73-1.22,1.8a1.6,1.6,0,0,1-1.63-1.1c-.48-.95-.93-1.9-1.37-2.87-2.08-4.57-4-9.2-6.27-13.7-2-3.94-4.2-7.75-6.36-11.59a67.74,67.74,0,0,1-7.5-18.29,53.92,53.92,0,0,1-.59-22.83,27.49,27.49,0,0,1,2-6.26c.75-1.6,1.44-3.22,2.17-4.83a2.84,2.84,0,0,0,.33-2.27c-.43-.38-.84-.1-1.22.05-8.19,3.37-16.79,4.6-25.56,5.05a8.38,8.38,0,0,1-1.58,0,2.81,2.81,0,0,0-2.53,1.14,23.87,23.87,0,0,0-5.48,8.64c-.85,2.51-1.78,5-2.65,7.49a77.07,77.07,0,0,1-23.75,34.07,143.16,143.16,0,0,1-23.32,15.92c-5.87,3.24-11.89,6.19-17.84,9.25a4.83,4.83,0,0,1-1.48.55,1.82,1.82,0,0,1-1.19-.32,1.14,1.14,0,0,1-.2-1.45,4.9,4.9,0,0,1,.72-1.09,276.56,276.56,0,0,0,17.65-24.44c2.74-4.1,5.52-8.2,8.56-12.08a90.75,90.75,0,0,1,27.61-23.47c4.92-2.75,9.89-5.42,14.55-8.62.29-.2.68-.3.88-.56,1.16-1.52,2.28-3.07,3.55-4.8-.61-.09-1-.16-1.44-.2-3.15-.28-6.32-.53-9.47-.85-2.8-.28-5.59-.71-8.4-.95a20.37,20.37,0,0,0-10,1.89c-6,2.62-12,5.17-18,7.59a48.72,48.72,0,0,1-24.65,3.16c-5.86-.75-11.69-1.69-17.54-2.49a172.8,172.8,0,0,0-22.37-1.9c-2.47,0-4.93.12-7.4.19-.61,0-1.23.05-1.84,0a1.32,1.32,0,0,1-1.37-1,1.4,1.4,0,0,1,.78-1.53,7.22,7.22,0,0,1,1.16-.63c6-2.38,11.77-5.2,17.92-7.18a106.23,106.23,0,0,1,32.53-5,93.71,93.71,0,0,1,25.09,3.3,47.08,47.08,0,0,0,13.3,1.88c1.4,0,2.79-.14,4.16-.22.16-.78-.4-.8-.74-.94a55.7,55.7,0,0,0-16.27-4.41c-3.78-.34-7.54-.76-11.31-1.16A73.24,73.24,0,0,1,307.23,405a57.05,57.05,0,0,1-12.93-5.34c-6.06-3.44-12-7-17.75-11-6.78-4.77-13.94-9-21-13.27-.68-.42-1.37-.82-2-1.29a1.2,1.2,0,0,1-.44-1.42,1.3,1.3,0,0,1,1.29-.76,4.7,4.7,0,0,1,1,.13A208.52,208.52,0,0,0,278,374.58c1.93.14,3.87.26,5.8.41a55.78,55.78,0,0,1,17.38,4.3c1.14.47,2.29.94,3.4,1.49a62.5,62.5,0,0,0,15,5.1A52.76,52.76,0,0,1,332,390.3a24.25,24.25,0,0,1,8.64,6.84c1.95,2.5,3.76,5.11,5.65,7.65,1.21,1.63,2.39,3.28,3.69,4.83a10.24,10.24,0,0,0,7.09,3.67c2.37.23,4.73.53,7.08.87a95,95,0,0,0,31.83-.84A65.85,65.85,0,0,0,409,409.05a4,4,0,0,0,.81-.69,4.45,4.45,0,0,0-.77-.48c-1.59-.51-3.22-.91-4.78-1.51a130.41,130.41,0,0,0-24.83-6.28c-3.22-.55-6.44-1.09-9.64-1.7a61.66,61.66,0,0,1-22.44-9c-3.31-2.18-6.59-4.43-9.72-6.86q-8.87-6.92-18-13.42a7,7,0,0,1-1.43-1.16,1.43,1.43,0,0,1-.25-1.18,1.73,1.73,0,0,1,.93-.8,2.09,2.09,0,0,1,1,0c.44.05.87.18,1.3.26,6.23,1.22,12.43,2.62,18.69,3.61a141.81,141.81,0,0,1,34.85,10.53,110.63,110.63,0,0,1,16.38,8.6,48.61,48.61,0,0,1,9.24,7.86c2,2.21,4.14,4.35,6.06,6.64,1.75,2.1,4,2.72,6.55,2.82a5,5,0,0,0,3-.78,77.55,77.55,0,0,0,11.63-8.69c2.21-2,4.31-4.16,6.45-6.26a15.22,15.22,0,0,0,1.11-1.41c-1.09.07-1.85.09-2.6.16a27.13,27.13,0,0,1-16.74-3.76c-2-1.15-3.89-2.44-5.85-3.61-3.79-2.26-7.6-4.49-11.39-6.73-2.74-1.61-5.5-3.17-8.2-4.85a72.17,72.17,0,0,1-16.77-14.45c-5.9-6.9-11.74-13.85-17.59-20.79a13.78,13.78,0,0,1-1.24-1.71,1.16,1.16,0,0,1,.05-1.47,1.35,1.35,0,0,1,1.46-.33,8.54,8.54,0,0,1,1.46.62,75.82,75.82,0,0,0,13.81,5.33c10.37,2.92,19,8.61,26.75,16A237.15,237.15,0,0,1,418,374.87c1.62,2,3,4.14,4.47,6.22,1.12,1.58,2.24,3.16,3.38,4.72a2.85,2.85,0,0,0,2.26,1.18,27.53,27.53,0,0,0,9.43-.93,3.79,3.79,0,0,0,1.87-1.4c1.58-1.9,3.2-3.76,4.72-5.71a196.53,196.53,0,0,0,27.78-49.42c2.28-5.82,4.15-11.81,6.21-17.72.26-.74.49-1.51.82-2.22a.87.87,0,0,1,1.12-.44.84.84,0,0,1,.66,1,23.47,23.47,0,0,1-.55,2.31,191.64,191.64,0,0,1-12.56,32.82,193.93,193.93,0,0,1-21.77,35.29c-1.46,1.87-3,3.71-4.55,5.5a3.82,3.82,0,0,0-1.12,3.12,34.25,34.25,0,0,0,.86,5.47c.94,3.12,2.13,6.16,3.24,9.23s2.41,6.25,3.46,9.44a54.76,54.76,0,0,1,2.43,18.26,63.52,63.52,0,0,1-3.07,18.46c-1.34,4.2-2.85,8.35-4.57,12.41-2.79,6.57-5.8,13.05-8.72,19.57a4.73,4.73,0,0,1-.74,1.39,2.48,2.48,0,0,1-1.33.69c-.6.09-1-.42-1.11-.94a9.42,9.42,0,0,1-.45-2.33c-.3-7.85-1.34-15.63-2-23.44a101.58,101.58,0,0,1,2.28-31.53c1.77-7.73,3.74-15.42,5.66-23.12a38.8,38.8,0,0,1,1.63-5.31C438.68,395.09,438.42,392.83,437.7,390.07Zm-91.33,19.76a70.61,70.61,0,0,0-7.62-11.29,23.08,23.08,0,0,0-7.59-6,50.1,50.1,0,0,0-11.9-4.29,65.58,65.58,0,0,1-16-5.45c-.63-.32-1.28-.58-1.93-.86a55.51,55.51,0,0,0-18.61-4.65c-6.94-.44-13.88-.92-20.78-1.85a11.92,11.92,0,0,0-1.61.1l3.1,1.94c4.68,3,9.43,5.86,14,9,5.74,4,11.67,7.58,17.71,11a55.78,55.78,0,0,0,12.41,5.18,71.07,71.07,0,0,0,12.2,2.18c3.76.39,7.53.79,11.29,1.16a50.78,50.78,0,0,1,13.08,3.09C344.88,409.38,345.63,409.59,346.37,409.83Zm23.5,16.78c-1.84,1.09-3.18,1.91-4.55,2.68-3.6,2-7.3,3.93-10.81,6.11a89.52,89.52,0,0,0-26.25,24.22c-2.1,2.94-4.11,5.94-6.17,8.92L311.27,484.2c-.5.72-1,1.44-1.76,2.57a8.14,8.14,0,0,0,1.31-.61,31.2,31.2,0,0,0,2.57-2.28c3.47-3.63,6.88-7.32,10.34-11,3.65-3.83,7.32-7.63,11-11.44.31-.32.65-.6,1-.88a1,1,0,0,1,1.43,0,1,1,0,0,1,.09,1.43,18.9,18.9,0,0,1-1.57,1.77c-3.29,3.45-6.6,6.86-9.86,10.32s-6.37,6.84-9.54,10.27c-.34.37-.63.79-1.27,1.63,2.07-1.1,3.63-1.9,5.17-2.74a147,147,0,0,0,24.47-16.57,74.57,74.57,0,0,0,22.89-33.09c.61-1.75,1.24-3.49,1.84-5.24C369.48,428,369.59,427.6,369.87,426.61Zm71.94-21.18c.05.78.13,1.56.13,2.34q0,4.23-.07,8.46a3.24,3.24,0,0,1-.37,1.51,1.59,1.59,0,0,1-1.06.59c-.51.08-.82-.37-.86-.82a12.27,12.27,0,0,1,0-2.1,68.35,68.35,0,0,0-.27-11.62c0-.42-.17-.83-.37-1.79-.41,1.13-.69,1.74-.85,2.38-1.91,7.79-3.95,15.56-5.66,23.39a97.58,97.58,0,0,0-1.9,30c.61,6.58,1.18,13.16,1.78,19.74,0,.2.2.38.42.78.37-.73.66-1.26.91-1.81,2.29-5.06,4.6-10.12,6.86-15.19a97.22,97.22,0,0,0,4.66-12.93,66.1,66.1,0,0,0,2.6-15.61A53,53,0,0,0,441.81,405.43ZM337.89,416.05c-.41-.1-.81-.22-1.22-.31-2.41-.5-4.86-.87-7.24-1.52a90.24,90.24,0,0,0-24.57-3.15,107.29,107.29,0,0,0-18.93,1.69,115,115,0,0,0-22,6.74,15.83,15.83,0,0,0-3.53,1.91c2.4.07,4.32.12,6.24.19,9.62.36,19.12,1.77,28.62,3.17,2.88.42,5.75.88,8.64,1.23,9.17,1.09,17.9-.62,26.32-4.22a3.74,3.74,0,0,0,2-1.42c-4,.82-7.79.64-11.56.8a2.81,2.81,0,0,1-1.3-.15,1.7,1.7,0,0,1-.82-.89c-.17-.43.35-1.07.84-1.17a9.52,9.52,0,0,1,1.31-.12c1.76-.06,3.52-.13,5.28-.15A32.41,32.41,0,0,0,337.89,416.05Zm59.16-14.62.24-.43a9.82,9.82,0,0,0-1-.71c-1.42-.72-2.83-1.43-4.27-2.11-4.8-2.27-9.91-3.64-15-5.13-3.38-1-6.72-2.13-10.07-3.22a6.6,6.6,0,0,1-1.65-.79,1,1,0,0,1-.36-.89c.13-.35.49-.81.82-.87a2.91,2.91,0,0,1,1.53.2c5.28,2,10.76,3.39,16.16,5a70,70,0,0,1,13.9,5.75c.35.19.73.34,1.4.64a6.17,6.17,0,0,0-.52-.93,39.82,39.82,0,0,0-6.93-6.1,89.72,89.72,0,0,0-10-5.89,164.08,164.08,0,0,0-18.48-7.88A108.32,108.32,0,0,0,345,373.12c-6.33-1.13-12.65-2.31-19-3.46-.34-.07-.69-.16-.88.39.38.31.77.65,1.19,1,4.35,3.3,8.68,6.64,13.07,9.88,3,2.2,6,4.34,9.08,6.38A59.35,59.35,0,0,0,369.88,396c3.29.65,6.6,1.14,9.89,1.77,4.5.86,9,1.77,13.47,2.7C394.52,400.74,395.78,401.11,397.05,401.43Zm-37-65.32c.75.94,1.15,1.49,1.59,2q3.48,4.15,7,8.29c1.71,2,3.47,4,5.14,6a80.3,80.3,0,0,0,23.56,19.34c4.76,2.68,9.44,5.5,14.16,8.25a9.57,9.57,0,0,0,1,.47,1.32,1.32,0,0,0-.42-1c-1.67-1.7-3.32-3.42-5-5.07q-5.51-5.32-11.07-10.59c-1.73-1.64-3.56-3.17-5.33-4.75-.46-.41-.92-.82-1.35-1.27-.68-.71-.82-1.36-.45-1.87s1.17-.47,2.09.25c.34.27.66.58,1,.88.85.76,1.69,1.54,2.56,2.29a204.23,204.23,0,0,1,16.61,15.89,48.11,48.11,0,0,0,8.09,6.77c.25.17.48.57,1,.2a9.62,9.62,0,0,0-.7-1.35c-1-1.37-1.91-2.75-3-4A233.76,233.76,0,0,0,396,354.51c-7.18-6.74-15.24-11.93-24.79-14.68-3.13-.9-6.17-2.12-9.25-3.19C361.5,336.49,361,336.38,360.06,336.11Zm66.1,153,.44,0a7.13,7.13,0,0,0,.14-1.21c-.29-5.8-.47-11.62-.93-17.41A75.94,75.94,0,0,0,419,445.05c-2.81-6.18-5.8-12.28-7.91-18.75-.09-.28-.15-.73-.78-.42,0,.55.05,1.15.08,1.75a45.59,45.59,0,0,0,4.43,18.11c1.38,2.85,2.47,5.84,3.66,8.78a7.64,7.64,0,0,1,.46,1.78,1.11,1.11,0,0,1-.75,1.25,1,1,0,0,1-1.28-.6c-.14-.32-.23-.67-.37-1-1.21-2.93-2.39-5.88-3.67-8.78a49.07,49.07,0,0,1-4.36-14.37c-.32-3-.42-6-.62-9,0-.37-.13-.73-.25-1.41a11.14,11.14,0,0,0-1.31,4.06,52.71,52.71,0,0,0,1.19,23.56c1.57,6,4.43,11.5,7.49,16.87,2.62,4.6,5.29,9.16,7.48,14C423.72,483.64,424.93,486.38,426.16,489.11ZM413.77,381.22l.15.17,0-.22Z" transform="translate(-20.96 -1.24)"/><path class="cls-2" d="M326.33,397.15c.3.73-.15,1.44-.65,1.39a6,6,0,0,1-1.52-.34c-2.32-.84-4.61-1.73-6.92-2.58a64.38,64.38,0,0,0-9.63-2.72c-2.93-.6-5.82-1.36-8.72-2.07a3.61,3.61,0,0,1-1.44-.58,1.5,1.5,0,0,1-.36-1.15c0-.25.45-.59.73-.63a4.31,4.31,0,0,1,1.56.09c4.37,1,8.75,2,13.09,3.06s8.61,3.06,12.84,4.79A4.49,4.49,0,0,1,326.33,397.15Z" transform="translate(-20.96 -1.24)"/><path class="cls-2" d="M334.14,401.94c-.07.18-.11.59-.34.77a1.07,1.07,0,0,1-.94.16,18.18,18.18,0,0,1-2.48-1.47,1,1,0,0,1-.32-.89,1.09,1.09,0,0,1,.65-.72A3.56,3.56,0,0,1,334.14,401.94Z" transform="translate(-20.96 -1.24)"/><path class="cls-2" d="M292.8,386.78a.87.87,0,0,1-.71,1.16,5.39,5.39,0,0,1-3.13-1.13.89.89,0,0,1,.22-1.35A3.32,3.32,0,0,1,292.8,386.78Z" transform="translate(-20.96 -1.24)"/><path class="cls-2" d="M346.37,448.91c.26.09.71.1.86.32a1.59,1.59,0,0,1,.22,1.16,2.88,2.88,0,0,1-.74,1.06q-1.84,2-3.74,4a2.66,2.66,0,0,1-1,.75,1.25,1.25,0,0,1-.93-.31,1,1,0,0,1-.2-.7,1.33,1.33,0,0,1,.3-.71q2.24-2.58,4.5-5.13A3.24,3.24,0,0,1,346.37,448.91Z" transform="translate(-20.96 -1.24)"/><path class="cls-2" d="M354.41,442.6c0,.33,0,.76-.12,1a10.08,10.08,0,0,1-1.72,1.54c-.18.13-.65-.05-.92-.21a.86.86,0,0,1-.3-.67,2.64,2.64,0,0,1,2.34-2.07C353.92,442.18,354.12,442.41,354.41,442.6Z" transform="translate(-20.96 -1.24)"/><path class="cls-2" d="M437.94,446.6c-.42-.36-1-.62-1.08-1a5.14,5.14,0,0,1,.1-1.82c.48-3.74,1-7.49,1.45-11.24.22-1.92.21-3.86.36-5.79a14.93,14.93,0,0,1,.42-2.58,1,1,0,0,1,.78-.54,2,2,0,0,1,.93.74c.14.17.09.5.09.76a116,116,0,0,1-1.75,19.15,6,6,0,0,1-.42,1.52C438.69,446.09,438.33,446.26,437.94,446.6Z" transform="translate(-20.96 -1.24)"/><path class="cls-2" d="M436.45,452c.62-.26,1.37.14,1.32.64a22.2,22.2,0,0,1-.57,3.34c-.07.26-.71.49-1.09.5-.21,0-.58-.44-.62-.73a5.48,5.48,0,0,1,.5-3.33A1.54,1.54,0,0,1,436.45,452Z" transform="translate(-20.96 -1.24)"/><path class="cls-2" d="M315.62,420c-.19.35-.3.92-.58,1a5.78,5.78,0,0,1-3.83,0,.77.77,0,0,1-.43-.59,2.2,2.2,0,0,1,.34-.92.58.58,0,0,1,.44-.24c1.13,0,2.25,0,3.37.13C315.13,419.44,315.31,419.74,315.62,420Z" transform="translate(-20.96 -1.24)"/><path class="cls-2" d="M360.15,385.59c-.06.22-.07.55-.24.69a1.31,1.31,0,0,1-.91.34,4,4,0,0,1-1.16-.57c-1.08-.6-2.18-1.15-3.2-1.82a1.2,1.2,0,0,1-.43-1.09c.09-.31.63-.48,1-.7a.33.33,0,0,1,.26,0,11.67,11.67,0,0,1,4.46,2.66A1.66,1.66,0,0,1,360.15,385.59Z" transform="translate(-20.96 -1.24)"/><path class="cls-2" d="M386.12,352.4a1,1,0,0,1-.83,1.13.94.94,0,0,1-.51-.07c-1.18-.9-2.38-1.78-3.49-2.76-.21-.18-.19-.84,0-1.18a.77.77,0,0,1,1.13-.31c1.25.94,2.44,2,3.64,3C386.08,352.21,386.09,352.32,386.12,352.4Z" transform="translate(-20.96 -1.24)"/><path class="cls-2" d="M421,464.13a6.44,6.44,0,0,1,0,1.45c-.06.24-.46.48-.75.58a.75.75,0,0,1-.68-.23,16.94,16.94,0,0,1-.94-2.39.76.76,0,0,1,.6-1,1.54,1.54,0,0,1,1.13.36A4.2,4.2,0,0,1,421,464.13Z" transform="translate(-20.96 -1.24)"/><text class="cls-3" transform="translate(48.31 277.69)">J &amp; N</text><text class="cls-4" transform="translate(154.22 338.88)"><tspan class="cls-5">16.09.2</tspan><tspan x="133.19" y="0">2</tspan></text></svg>